<?xml version="1.0" encoding="UTF-8" standalone="no"?>
<!-- Created with Inkscape (http://www.inkscape.org/) -->

<svg
   width="1920"
   height="1080"
   viewBox="0 0 1920 1080"
   version="1.1"
   id="svg5"
   inkscape:version="1.2.2 (b0a8486541, 2022-12-01)"
   sodipodi:docname="header.svg"
   xmlns:inkscape="http://www.inkscape.org/namespaces/inkscape"
   xmlns:sodipodi="http://sodipodi.sourceforge.net/DTD/sodipodi-0.dtd"
   xmlns="http://www.w3.org/2000/svg"
   xmlns:svg="http://www.w3.org/2000/svg">
  <sodipodi:namedview
     id="namedview7"
     pagecolor="#505050"
     bordercolor="#eeeeee"
     borderopacity="1"
     inkscape:showpageshadow="0"
     inkscape:pageopacity="0"
     inkscape:pagecheckerboard="0"
     inkscape:deskcolor="#505050"
     inkscape:document-units="px"
     showgrid="false"
     inkscape:zoom="0.17842065"
     inkscape:cx="1188.2033"
     inkscape:cy="986.4329"
     inkscape:window-width="1366"
     inkscape:window-height="699"
     inkscape:window-x="0"
     inkscape:window-y="0"
     inkscape:window-maximized="1"
     inkscape:current-layer="g230" />
  <defs
     id="defs2" />
  <g
     inkscape:label="Layer 1"
     inkscape:groupmode="layer"
     id="layer1">
    <g
       id="g230"
       transform="matrix(3.9307126,0,0,2.2053996,-41.429819,-20.520634)">
      <rect
         style="display:inline;fill:#280b0b;stroke-width:1.01412"
         id="rect816"
         width="486.2847"
         height="483.85532"
         x="11.628202"
         y="12.230651"
         ry="0" />
      <path
         sodipodi:type="star"
         style="fill:#ff0000;stroke-width:0.339641"
         id="path284"
         inkscape:flatsided="false"
         sodipodi:sides="6"
         sodipodi:cx="683.5932"
         sodipodi:cy="463.29367"
         sodipodi:r1="167.77483"
         sodipodi:r2="118.6533"
         sodipodi:arg1="1.1948335"
         sodipodi:arg2="0.11868982"
         inkscape:rounded="2.6613372"
         inkscape:randomized="0"
         d="M 745.19479,619.35019 C 905.94087,992.67807 1203.383,537.6106 801.41173,477.34357 140.1571,378.20252 978.88594,58.597876 579.24509,594.67047 336.3067,920.5446 879.12775,950.60329 730.3349,572.35246 485.56625,-49.881378 1181.7164,516.67679 517.6435,438.61396 113.95903,391.16021 359.33796,876.28637 612.51637,558.30256 1029.0024,35.209777 886.42367,921.37258 621.99161,307.23716 461.24553,-66.090724 163.80341,388.97674 565.77467,449.24377 1227.0293,548.38483 388.30046,867.98947 787.94131,331.91687 1030.8797,6.0427399 488.05866,-24.015952 636.8515,354.23488 881.62015,976.46872 185.46999,409.91056 849.5429,487.97338 1253.2274,535.42713 1007.8484,50.300975 754.67003,368.28478 338.18405,891.37756 480.76273,5.2147615 745.19479,619.35019 Z"
         transform="matrix(0.06014022,0,0,0.10721186,220.77696,174.92459)"
         inkscape:transform-center-x="-1.0433918e-05"
         inkscape:transform-center-y="-1.7740008e-05" />
      <path
         sodipodi:type="star"
         style="fill:#ff0000;stroke-width:0.339641"
         id="path284-7"
         inkscape:flatsided="false"
         sodipodi:sides="6"
         sodipodi:cx="683.5932"
         sodipodi:cy="463.29367"
         sodipodi:r1="167.77483"
         sodipodi:r2="118.6533"
         sodipodi:arg1="1.1948335"
         sodipodi:arg2="0.11868982"
         inkscape:rounded="2.6613372"
         inkscape:randomized="0"
         d="M 745.19479,619.35019 C 905.94087,992.67807 1203.383,537.6106 801.41173,477.34357 140.1571,378.20252 978.88594,58.597876 579.24509,594.67047 336.3067,920.5446 879.12775,950.60329 730.3349,572.35246 485.56625,-49.881378 1181.7164,516.67679 517.6435,438.61396 113.95903,391.16021 359.33796,876.28637 612.51637,558.30256 1029.0024,35.209777 886.42367,921.37258 621.99161,307.23716 461.24553,-66.090724 163.80341,388.97674 565.77467,449.24377 1227.0293,548.38483 388.30046,867.98947 787.94131,331.91687 1030.8797,6.0427399 488.05866,-24.015952 636.8515,354.23488 881.62015,976.46872 185.46999,409.91056 849.5429,487.97338 1253.2274,535.42713 1007.8484,50.300975 754.67003,368.28478 338.18405,891.37756 480.76273,5.2147615 745.19479,619.35019 Z"
         transform="matrix(0.04075171,0,0,0.07263229,153.35977,27.460883)"
         inkscape:transform-center-x="-3.1943041e-05"
         inkscape:transform-center-y="-7.8832438e-06" />
      <path
         sodipodi:type="star"
         style="fill:#ff0000;stroke-width:0.339641"
         id="path284-7-6"
         inkscape:flatsided="false"
         sodipodi:sides="6"
         sodipodi:cx="683.5932"
         sodipodi:cy="463.29367"
         sodipodi:r1="167.77483"
         sodipodi:r2="118.6533"
         sodipodi:arg1="1.1948335"
         sodipodi:arg2="0.11868982"
         inkscape:rounded="2.6613372"
         inkscape:randomized="0"
         d="M 745.19479,619.35019 C 905.94087,992.67807 1203.383,537.6106 801.41173,477.34357 140.1571,378.20252 978.88594,58.597876 579.24509,594.67047 336.3067,920.5446 879.12775,950.60329 730.3349,572.35246 485.56625,-49.881378 1181.7164,516.67679 517.6435,438.61396 113.95903,391.16021 359.33796,876.28637 612.51637,558.30256 1029.0024,35.209777 886.42367,921.37258 621.99161,307.23716 461.24553,-66.090724 163.80341,388.97674 565.77467,449.24377 1227.0293,548.38483 388.30046,867.98947 787.94131,331.91687 1030.8797,6.0427399 488.05866,-24.015952 636.8515,354.23488 881.62015,976.46872 185.46999,409.91056 849.5429,487.97338 1253.2274,535.42713 1007.8484,50.300975 754.67003,368.28478 338.18405,891.37756 480.76273,5.2147615 745.19479,619.35019 Z"
         transform="matrix(0.04075171,0,0,0.07263229,399.58298,279.3248)"
         inkscape:transform-center-x="-3.1943041e-05"
         inkscape:transform-center-y="-7.8832438e-06" />
      <path
         sodipodi:type="star"
         style="fill:#ff0000;stroke-width:0.339641"
         id="path284-7-5"
         inkscape:flatsided="false"
         sodipodi:sides="6"
         sodipodi:cx="683.5932"
         sodipodi:cy="463.29367"
         sodipodi:r1="167.77483"
         sodipodi:r2="118.6533"
         sodipodi:arg1="1.1948335"
         sodipodi:arg2="0.11868982"
         inkscape:rounded="2.6613372"
         inkscape:randomized="0"
         d="M 745.19479,619.35019 C 905.94087,992.67807 1203.383,537.6106 801.41173,477.34357 140.1571,378.20252 978.88594,58.597876 579.24509,594.67047 336.3067,920.5446 879.12775,950.60329 730.3349,572.35246 485.56625,-49.881378 1181.7164,516.67679 517.6435,438.61396 113.95903,391.16021 359.33796,876.28637 612.51637,558.30256 1029.0024,35.209777 886.42367,921.37258 621.99161,307.23716 461.24553,-66.090724 163.80341,388.97674 565.77467,449.24377 1227.0293,548.38483 388.30046,867.98947 787.94131,331.91687 1030.8797,6.0427399 488.05866,-24.015952 636.8515,354.23488 881.62015,976.46872 185.46999,409.91056 849.5429,487.97338 1253.2274,535.42713 1007.8484,50.300975 754.67003,368.28478 338.18405,891.37756 480.76273,5.2147615 745.19479,619.35019 Z"
         transform="matrix(0.01757755,0,0,0.03132868,214.5494,132.61729)"
         inkscape:transform-center-x="-1.6281178e-05"
         inkscape:transform-center-y="-1.5434841e-05" />
      <path
         sodipodi:type="star"
         style="fill:#ff0000;stroke-width:0.339641"
         id="path284-7-5-3"
         inkscape:flatsided="false"
         sodipodi:sides="6"
         sodipodi:cx="683.5932"
         sodipodi:cy="463.29367"
         sodipodi:r1="167.77483"
         sodipodi:r2="118.6533"
         sodipodi:arg1="1.1948335"
         sodipodi:arg2="0.11868982"
         inkscape:rounded="2.6613372"
         inkscape:randomized="0"
         d="M 745.19479,619.35019 C 905.94087,992.67807 1203.383,537.6106 801.41173,477.34357 140.1571,378.20252 978.88594,58.597876 579.24509,594.67047 336.3067,920.5446 879.12775,950.60329 730.3349,572.35246 485.56625,-49.881378 1181.7164,516.67679 517.6435,438.61396 113.95903,391.16021 359.33796,876.28637 612.51637,558.30256 1029.0024,35.209777 886.42367,921.37258 621.99161,307.23716 461.24553,-66.090724 163.80341,388.97674 565.77467,449.24377 1227.0293,548.38483 388.30046,867.98947 787.94131,331.91687 1030.8797,6.0427399 488.05866,-24.015952 636.8515,354.23488 881.62015,976.46872 185.46999,409.91056 849.5429,487.97338 1253.2274,535.42713 1007.8484,50.300975 754.67003,368.28478 338.18405,891.37756 480.76273,5.2147615 745.19479,619.35019 Z"
         transform="matrix(0.04075171,0,0,0.07263229,291.08604,73.372304)"
         inkscape:transform-center-x="-3.1943041e-05"
         inkscape:transform-center-y="-7.8832438e-06" />
      <path
         sodipodi:type="star"
         style="fill:#ff0000;stroke-width:0.339641"
         id="path284-6"
         inkscape:flatsided="false"
         sodipodi:sides="6"
         sodipodi:cx="683.5932"
         sodipodi:cy="463.29367"
         sodipodi:r1="117.49393"
         sodipodi:r2="118.6533"
         sodipodi:arg1="1.2393172"
         sodipodi:arg2="0.16317351"
         inkscape:rounded="2.6613372"
         inkscape:randomized="0"
         d="M 721.83066,574.39146 C 835.77589,875.65145 1116.7601,544.44308 800.67039,482.56894 262.12963,377.1503 953.93957,127.19385 606.49842,551.95718 402.57223,801.26664 829.89918,879.00189 725.43892,574.32313 547.46377,55.223826 1109.8374,529.37059 568.26096,440.85938 250.38954,388.90885 396.73231,797.85248 608.36173,555.04786 968.92734,141.3672 839.491,865.47041 645.35574,352.19588 531.41051,50.935888 250.42633,382.14426 566.51601,444.0184 1105.0568,549.43705 413.24683,799.39349 760.68798,374.63016 964.61417,125.32071 537.28722,47.585447 641.74748,352.26421 819.72263,871.36352 257.34903,397.21675 798.92544,485.72796 1116.7969,537.67849 970.45409,128.73486 758.82467,371.53948 398.25907,785.22014 527.6954,61.116933 721.83066,574.39146 Z"
         transform="matrix(0.06014022,0,0,0.10721186,55.356989,383.80617)"
         inkscape:transform-center-x="-1.0433918e-05"
         inkscape:transform-center-y="-1.7740008e-05" />
      <path
         sodipodi:type="star"
         style="fill:#ff0000;stroke-width:0.339641"
         id="path284-7-2"
         inkscape:flatsided="false"
         sodipodi:sides="6"
         sodipodi:cx="683.5932"
         sodipodi:cy="463.29367"
         sodipodi:r1="167.77483"
         sodipodi:r2="118.6533"
         sodipodi:arg1="1.1948335"
         sodipodi:arg2="0.11868982"
         inkscape:rounded="2.6613372"
         inkscape:randomized="0"
         d="M 745.19479,619.35019 C 905.94087,992.67807 1203.383,537.6106 801.41173,477.34357 140.1571,378.20252 978.88594,58.597876 579.24509,594.67047 336.3067,920.5446 879.12775,950.60329 730.3349,572.35246 485.56625,-49.881378 1181.7164,516.67679 517.6435,438.61396 113.95903,391.16021 359.33796,876.28637 612.51637,558.30256 1029.0024,35.209777 886.42367,921.37258 621.99161,307.23716 461.24553,-66.090724 163.80341,388.97674 565.77467,449.24377 1227.0293,548.38483 388.30046,867.98947 787.94131,331.91687 1030.8797,6.0427399 488.05866,-24.015952 636.8515,354.23488 881.62015,976.46872 185.46999,409.91056 849.5429,487.97338 1253.2274,535.42713 1007.8484,50.300975 754.67003,368.28478 338.18405,891.37756 480.76273,5.2147615 745.19479,619.35019 Z"
         transform="matrix(0.04075171,0,0,0.07263229,17.416684,258.80387)"
         inkscape:transform-center-x="-3.1943041e-05"
         inkscape:transform-center-y="-7.8832438e-06" />
      <path
         sodipodi:type="star"
         style="fill:#ff0000;stroke-width:0.339641"
         id="path284-7-5-3-9"
         inkscape:flatsided="false"
         sodipodi:sides="6"
         sodipodi:cx="683.5932"
         sodipodi:cy="463.29367"
         sodipodi:r1="167.77483"
         sodipodi:r2="118.6533"
         sodipodi:arg1="1.1948335"
         sodipodi:arg2="0.11868982"
         inkscape:rounded="2.6613372"
         inkscape:randomized="0"
         d="M 745.19479,619.35019 C 905.94087,992.67807 1203.383,537.6106 801.41173,477.34357 140.1571,378.20252 978.88594,58.597876 579.24509,594.67047 336.3067,920.5446 879.12775,950.60329 730.3349,572.35246 485.56625,-49.881378 1181.7164,516.67679 517.6435,438.61396 113.95903,391.16021 359.33796,876.28637 612.51637,558.30256 1029.0024,35.209777 886.42367,921.37258 621.99161,307.23716 461.24553,-66.090724 163.80341,388.97674 565.77467,449.24377 1227.0293,548.38483 388.30046,867.98947 787.94131,331.91687 1030.8797,6.0427399 488.05866,-24.015952 636.8515,354.23488 881.62015,976.46872 185.46999,409.91056 849.5429,487.97338 1253.2274,535.42713 1007.8484,50.300975 754.67003,368.28478 338.18405,891.37756 480.76273,5.2147615 745.19479,619.35019 Z"
         transform="matrix(0.04075171,0,0,0.07263229,392.06446,178.13509)"
         inkscape:transform-center-x="-3.1943041e-05"
         inkscape:transform-center-y="-7.8832438e-06" />
      <path
         sodipodi:type="star"
         style="fill:#ff0000;stroke-width:0.339641"
         id="path284-7-1"
         inkscape:flatsided="false"
         sodipodi:sides="6"
         sodipodi:cx="683.5932"
         sodipodi:cy="463.29367"
         sodipodi:r1="167.77483"
         sodipodi:r2="118.6533"
         sodipodi:arg1="1.1948335"
         sodipodi:arg2="0.11868982"
         inkscape:rounded="2.6613372"
         inkscape:randomized="0"
         d="M 745.19479,619.35019 C 905.94087,992.67807 1203.383,537.6106 801.41173,477.34357 140.1571,378.20252 978.88594,58.597876 579.24509,594.67047 336.3067,920.5446 879.12775,950.60329 730.3349,572.35246 485.56625,-49.881378 1181.7164,516.67679 517.6435,438.61396 113.95903,391.16021 359.33796,876.28637 612.51637,558.30256 1029.0024,35.209777 886.42367,921.37258 621.99161,307.23716 461.24553,-66.090724 163.80341,388.97674 565.77467,449.24377 1227.0293,548.38483 388.30046,867.98947 787.94131,331.91687 1030.8797,6.0427399 488.05866,-24.015952 636.8515,354.23488 881.62015,976.46872 185.46999,409.91056 849.5429,487.97338 1253.2274,535.42713 1007.8484,50.300975 754.67003,368.28478 338.18405,891.37756 480.76273,5.2147615 745.19479,619.35019 Z"
         transform="matrix(0.04075171,0,0,0.07263229,342.74001,371.26962)"
         inkscape:transform-center-x="-3.1943041e-05"
         inkscape:transform-center-y="-7.8832438e-06" />
      <path
         sodipodi:type="star"
         style="fill:#ff0000;stroke-width:0.339641"
         id="path284-7-8"
         inkscape:flatsided="false"
         sodipodi:sides="6"
         sodipodi:cx="683.5932"
         sodipodi:cy="463.29367"
         sodipodi:r1="167.77483"
         sodipodi:r2="118.6533"
         sodipodi:arg1="1.1948335"
         sodipodi:arg2="0.11868982"
         inkscape:rounded="2.6613372"
         inkscape:randomized="0"
         d="M 745.19479,619.35019 C 905.94087,992.67807 1203.383,537.6106 801.41173,477.34357 140.1571,378.20252 978.88594,58.597876 579.24509,594.67047 336.3067,920.5446 879.12775,950.60329 730.3349,572.35246 485.56625,-49.881378 1181.7164,516.67679 517.6435,438.61396 113.95903,391.16021 359.33796,876.28637 612.51637,558.30256 1029.0024,35.209777 886.42367,921.37258 621.99161,307.23716 461.24553,-66.090724 163.80341,388.97674 565.77467,449.24377 1227.0293,548.38483 388.30046,867.98947 787.94131,331.91687 1030.8797,6.0427399 488.05866,-24.015952 636.8515,354.23488 881.62015,976.46872 185.46999,409.91056 849.5429,487.97338 1253.2274,535.42713 1007.8484,50.300975 754.67003,368.28478 338.18405,891.37756 480.76273,5.2147615 745.19479,619.35019 Z"
         transform="matrix(0.04075171,0,0,0.07263229,425.90479,401.66912)"
         inkscape:transform-center-x="-3.1943041e-05"
         inkscape:transform-center-y="-7.8832438e-06" />
      <path
         sodipodi:type="star"
         style="fill:#ff0000;stroke-width:0.339641"
         id="path284-7-8-7"
         inkscape:flatsided="false"
         sodipodi:sides="6"
         sodipodi:cx="683.5932"
         sodipodi:cy="463.29367"
         sodipodi:r1="167.77483"
         sodipodi:r2="118.6533"
         sodipodi:arg1="1.1948335"
         sodipodi:arg2="0.11868982"
         inkscape:rounded="2.6613372"
         inkscape:randomized="0"
         d="M 745.19479,619.35019 C 905.94087,992.67807 1203.383,537.6106 801.41173,477.34357 140.1571,378.20252 978.88594,58.597876 579.24509,594.67047 336.3067,920.5446 879.12775,950.60329 730.3349,572.35246 485.56625,-49.881378 1181.7164,516.67679 517.6435,438.61396 113.95903,391.16021 359.33796,876.28637 612.51637,558.30256 1029.0024,35.209777 886.42367,921.37258 621.99161,307.23716 461.24553,-66.090724 163.80341,388.97674 565.77467,449.24377 1227.0293,548.38483 388.30046,867.98947 787.94131,331.91687 1030.8797,6.0427399 488.05866,-24.015952 636.8515,354.23488 881.62015,976.46872 185.46999,409.91056 849.5429,487.97338 1253.2274,535.42713 1007.8484,50.300975 754.67003,368.28478 338.18405,891.37756 480.76273,5.2147615 745.19479,619.35019 Z"
         transform="matrix(0.06691429,0,0,0.11926218,218.04463,19.014904)"
         inkscape:transform-center-x="-4.8222778e-05"
         inkscape:transform-center-y="-1.6188422e-05" />
      <path
         sodipodi:type="star"
         style="fill:#ff0000;stroke-width:0.339641"
         id="path284-6-3"
         inkscape:flatsided="false"
         sodipodi:sides="6"
         sodipodi:cx="683.5932"
         sodipodi:cy="463.29367"
         sodipodi:r1="167.77483"
         sodipodi:r2="118.6533"
         sodipodi:arg1="1.1948335"
         sodipodi:arg2="0.11868982"
         inkscape:rounded="2.6613372"
         inkscape:randomized="0"
         d="M 745.19479,619.35019 C 905.94087,992.67807 1203.383,537.6106 801.41173,477.34357 140.1571,378.20252 978.88594,58.597876 579.24509,594.67047 336.3067,920.5446 879.12775,950.60329 730.3349,572.35246 485.56625,-49.881378 1181.7164,516.67679 517.6435,438.61396 113.95903,391.16021 359.33796,876.28637 612.51637,558.30256 1029.0024,35.209777 886.42367,921.37258 621.99161,307.23716 461.24553,-66.090724 163.80341,388.97674 565.77467,449.24377 1227.0293,548.38483 388.30046,867.98947 787.94131,331.91687 1030.8797,6.0427399 488.05866,-24.015952 636.8515,354.23488 881.62015,976.46872 185.46999,409.91056 849.5429,487.97338 1253.2274,535.42713 1007.8484,50.300975 754.67003,368.28478 338.18405,891.37756 480.76273,5.2147615 745.19479,619.35019 Z"
         transform="matrix(0.06014022,0,0,0.10721186,310.98902,145.91435)"
         inkscape:transform-center-x="-1.0433918e-05"
         inkscape:transform-center-y="-1.7740008e-05" />
      <path
         sodipodi:type="star"
         style="fill:#ff0000;stroke-width:0.339641"
         id="path284-7-2-6"
         inkscape:flatsided="false"
         sodipodi:sides="6"
         sodipodi:cx="683.5932"
         sodipodi:cy="463.29367"
         sodipodi:r1="131.89423"
         sodipodi:r2="118.6533"
         sodipodi:arg1="0.50795715"
         sodipodi:arg2="-0.56818653"
         inkscape:rounded="2.6613372"
         inkscape:randomized="0"
         d="M 798.83446,527.44614 C 1103.4872,685.15981 1078.1873,223.64118 783.60348,399.44581 283.42726,697.94591 658.92713,13.309134 685.65616,595.17176 701.39849,937.8656 1088.4354,685.19593 788.89221,517.98118 280.29543,234.06592 1060.9582,216.93996 570.4149,531.01929 281.5045,715.99947 693.8413,924.84842 688.88193,581.82904 680.46138,-0.58631983 1085.6243,666.92449 568.35195,399.1412 263.69921,241.42754 288.99911,702.94616 583.58292,527.14153 1083.7591,228.64144 708.25927,913.27821 681.53024,331.41558 665.78791,-11.278261 278.75101,241.39141 578.29419,408.60616 1086.891,692.52143 306.2282,709.64739 796.7715,395.56805 1085.6819,210.58787 673.3451,1.7389214 678.30447,344.7583 686.72503,927.17366 281.56212,259.66285 798.83446,527.44614 Z"
         transform="matrix(0.04075171,0,0,0.07263229,188.08143,281.9318)"
         inkscape:transform-center-x="-3.1943041e-05"
         inkscape:transform-center-y="-7.8832438e-06" />
      <path
         sodipodi:type="star"
         style="fill:#ff0000;stroke-width:0.339641"
         id="path284-7-5-9"
         inkscape:flatsided="false"
         sodipodi:sides="6"
         sodipodi:cx="683.5932"
         sodipodi:cy="463.29367"
         sodipodi:r1="167.77483"
         sodipodi:r2="118.6533"
         sodipodi:arg1="1.1948335"
         sodipodi:arg2="0.11868982"
         inkscape:rounded="2.6613372"
         inkscape:randomized="0"
         d="M 745.19479,619.35019 C 905.94087,992.67807 1203.383,537.6106 801.41173,477.34357 140.1571,378.20252 978.88594,58.597876 579.24509,594.67047 336.3067,920.5446 879.12775,950.60329 730.3349,572.35246 485.56625,-49.881378 1181.7164,516.67679 517.6435,438.61396 113.95903,391.16021 359.33796,876.28637 612.51637,558.30256 1029.0024,35.209777 886.42367,921.37258 621.99161,307.23716 461.24553,-66.090724 163.80341,388.97674 565.77467,449.24377 1227.0293,548.38483 388.30046,867.98947 787.94131,331.91687 1030.8797,6.0427399 488.05866,-24.015952 636.8515,354.23488 881.62015,976.46872 185.46999,409.91056 849.5429,487.97338 1253.2274,535.42713 1007.8484,50.300975 754.67003,368.28478 338.18405,891.37756 480.76273,5.2147615 745.19479,619.35019 Z"
         transform="matrix(0.01757755,0,0,0.03132868,60.526279,329.95559)"
         inkscape:transform-center-x="-1.6281178e-05"
         inkscape:transform-center-y="-1.5434841e-05" />
      <path
         sodipodi:type="star"
         style="fill:#ff0000;stroke-width:0.339641"
         id="path284-7-5-3-1"
         inkscape:flatsided="false"
         sodipodi:sides="6"
         sodipodi:cx="683.5932"
         sodipodi:cy="463.29367"
         sodipodi:r1="167.77483"
         sodipodi:r2="118.6533"
         sodipodi:arg1="1.1948335"
         sodipodi:arg2="0.11868982"
         inkscape:rounded="2.6613372"
         inkscape:randomized="0"
         d="M 745.19479,619.35019 C 905.94087,992.67807 1203.383,537.6106 801.41173,477.34357 140.1571,378.20252 978.88594,58.597876 579.24509,594.67047 336.3067,920.5446 879.12775,950.60329 730.3349,572.35246 485.56625,-49.881378 1181.7164,516.67679 517.6435,438.61396 113.95903,391.16021 359.33796,876.28637 612.51637,558.30256 1029.0024,35.209777 886.42367,921.37258 621.99161,307.23716 461.24553,-66.090724 163.80341,388.97674 565.77467,449.24377 1227.0293,548.38483 388.30046,867.98947 787.94131,331.91687 1030.8797,6.0427399 488.05866,-24.015952 636.8515,354.23488 881.62015,976.46872 185.46999,409.91056 849.5429,487.97338 1253.2274,535.42713 1007.8484,50.300975 754.67003,368.28478 338.18405,891.37756 480.76273,5.2147615 745.19479,619.35019 Z"
         transform="matrix(0.04075171,0,0,0.07263229,106.3736,304.80025)"
         inkscape:transform-center-x="-3.1943041e-05"
         inkscape:transform-center-y="-7.8832438e-06" />
      <path
         sodipodi:type="star"
         style="fill:#ff0000;stroke-width:0.339641"
         id="path284-7-5-5"
         inkscape:flatsided="false"
         sodipodi:sides="6"
         sodipodi:cx="683.5932"
         sodipodi:cy="463.29367"
         sodipodi:r1="167.77483"
         sodipodi:r2="118.6533"
         sodipodi:arg1="1.1948335"
         sodipodi:arg2="0.11868982"
         inkscape:rounded="2.6613372"
         inkscape:randomized="0"
         d="M 745.19479,619.35019 C 905.94087,992.67807 1203.383,537.6106 801.41173,477.34357 140.1571,378.20252 978.88594,58.597876 579.24509,594.67047 336.3067,920.5446 879.12775,950.60329 730.3349,572.35246 485.56625,-49.881378 1181.7164,516.67679 517.6435,438.61396 113.95903,391.16021 359.33796,876.28637 612.51637,558.30256 1029.0024,35.209777 886.42367,921.37258 621.99161,307.23716 461.24553,-66.090724 163.80341,388.97674 565.77467,449.24377 1227.0293,548.38483 388.30046,867.98947 787.94131,331.91687 1030.8797,6.0427399 488.05866,-24.015952 636.8515,354.23488 881.62015,976.46872 185.46999,409.91056 849.5429,487.97338 1253.2274,535.42713 1007.8484,50.300975 754.67003,368.28478 338.18405,891.37756 480.76273,5.2147615 745.19479,619.35019 Z"
         transform="matrix(0.02699153,0,0,0.04810734,67.888952,178.71254)"
         inkscape:transform-center-x="-3.0997327e-05"
         inkscape:transform-center-y="2.2593633e-06" />
      <path
         sodipodi:type="star"
         style="fill:#ff0000;stroke-width:0.339641"
         id="path284-3"
         inkscape:flatsided="false"
         sodipodi:sides="6"
         sodipodi:cx="683.5932"
         sodipodi:cy="463.29367"
         sodipodi:r1="53.192696"
         sodipodi:r2="118.6533"
         sodipodi:arg1="1.6241635"
         sodipodi:arg2="0.54801983"
         inkscape:rounded="2.6613372"
         inkscape:randomized="0"
         d="m 680.7558,516.41064 c -6.64197,277.97133 336.9752,160.64939 104.11486,8.70117 -341.91081,-223.1069 209.64575,-233.3449 -148.6968,-37.71691 -244.05123,133.23355 29.36112,372.15373 44.52199,94.51669 22.26084,-407.6569 306.90549,64.88609 -41.68459,-147.63366 C 401.602,289.54014 331.39723,645.78227 579.4184,520.09345 943.59004,335.54346 676.67813,818.32445 686.4306,410.1767 693.07257,132.20537 349.45545,249.52731 582.31575,401.47553 924.22655,624.58243 372.67,634.82043 731.01254,439.19245 975.06377,305.95889 701.65142,67.038708 686.49055,344.67575 664.22971,752.33265 379.58507,279.78966 728.17514,492.30941 965.5844,637.0472 1035.7892,280.80507 787.76801,406.49389 423.59636,591.04389 690.50827,108.2629 680.7558,516.41064 Z"
         transform="matrix(0.08184727,0,0,0.14587745,17.365569,18.190335)"
         inkscape:transform-center-x="-467.49517"
         inkscape:transform-center-y="187.01618" />
      <path
         sodipodi:type="star"
         style="fill:#ff0000;stroke-width:0.339641"
         id="path284-7-2-2"
         inkscape:flatsided="false"
         sodipodi:sides="6"
         sodipodi:cx="683.5932"
         sodipodi:cy="463.29367"
         sodipodi:r1="222.16872"
         sodipodi:r2="118.6533"
         sodipodi:arg1="1.7958911"
         sodipodi:arg2="0.71974739"
         inkscape:rounded="2.661"
         inkscape:randomized="0"
         d="M 634.00542,679.85773 C 533.50189,1191.5902 1154.4427,896.94283 772.81719,541.5093 185.05501,-5.9131364 1231.2,268.61088 471.24934,528.63142 -22.175728,697.45903 543.46678,1087.8859 660.46847,579.67173 840.66912,-203.05647 1125.9968,840.19368 520.83712,312.06737 127.91558,-30.837469 72.617241,654.23675 571.24448,501.4561 1339.2073,266.15034 578.39004,1034.8765 733.18098,246.72961 833.68451,-265.00283 212.74366,29.644509 594.36921,385.07804 1182.1314,932.50048 135.9864,657.97647 895.93706,397.95592 1389.3621,229.12831 823.71962,-161.29857 706.71793,346.91561 526.51728,1129.6438 241.18955,86.393664 846.34929,614.51998 1239.2708,957.42481 1294.5692,272.35059 795.94192,425.13124 27.979091,660.437 788.79636,-108.28913 634.00542,679.85773 Z"
         transform="matrix(0.04205835,0,0,0.07496114,292.16841,280.64141)"
         inkscape:transform-center-x="-3.7800412e-05"
         inkscape:transform-center-y="-2.1329578e-06" />
      <path
         sodipodi:type="star"
         style="fill:#ff0000;stroke-width:0.339641"
         id="path284-7-2-6-0"
         inkscape:flatsided="false"
         sodipodi:sides="6"
         sodipodi:cx="683.5932"
         sodipodi:cy="463.29367"
         sodipodi:r1="167.77483"
         sodipodi:r2="118.6533"
         sodipodi:arg1="1.1948335"
         sodipodi:arg2="0.11868982"
         inkscape:rounded="2.6613372"
         inkscape:randomized="0"
         d="M 745.19479,619.35019 C 905.94087,992.67807 1203.383,537.6106 801.41173,477.34357 140.1571,378.20252 978.88594,58.597876 579.24509,594.67047 336.3067,920.5446 879.12775,950.60329 730.3349,572.35246 485.56625,-49.881378 1181.7164,516.67679 517.6435,438.61396 113.95903,391.16021 359.33796,876.28637 612.51637,558.30256 1029.0024,35.209777 886.42367,921.37258 621.99161,307.23716 461.24553,-66.090724 163.80341,388.97674 565.77467,449.24377 1227.0293,548.38483 388.30046,867.98947 787.94131,331.91687 1030.8797,6.0427399 488.05866,-24.015952 636.8515,354.23488 881.62015,976.46872 185.46999,409.91056 849.5429,487.97338 1253.2274,535.42713 1007.8484,50.300975 754.67003,368.28478 338.18405,891.37756 480.76273,5.2147615 745.19479,619.35019 Z"
         transform="matrix(0.04075171,0,0,0.07263229,161.11764,397.3809)"
         inkscape:transform-center-x="-3.1943041e-05"
         inkscape:transform-center-y="-7.8832438e-06" />
      <path
         sodipodi:type="star"
         style="fill:#ff0000;stroke-width:0.339641"
         id="path284-7-2-2-6"
         inkscape:flatsided="false"
         sodipodi:sides="6"
         sodipodi:cx="683.5932"
         sodipodi:cy="463.29367"
         sodipodi:r1="167.77483"
         sodipodi:r2="118.6533"
         sodipodi:arg1="1.1948335"
         sodipodi:arg2="0.11868982"
         inkscape:rounded="2.6613372"
         inkscape:randomized="0"
         d="M 745.19479,619.35019 C 905.94087,992.67807 1203.383,537.6106 801.41173,477.34357 140.1571,378.20252 978.88594,58.597876 579.24509,594.67047 336.3067,920.5446 879.12775,950.60329 730.3349,572.35246 485.56625,-49.881378 1181.7164,516.67679 517.6435,438.61396 113.95903,391.16021 359.33796,876.28637 612.51637,558.30256 1029.0024,35.209777 886.42367,921.37258 621.99161,307.23716 461.24553,-66.090724 163.80341,388.97674 565.77467,449.24377 1227.0293,548.38483 388.30046,867.98947 787.94131,331.91687 1030.8797,6.0427399 488.05866,-24.015952 636.8515,354.23488 881.62015,976.46872 185.46999,409.91056 849.5429,487.97338 1253.2274,535.42713 1007.8484,50.300975 754.67003,368.28478 338.18405,891.37756 480.76273,5.2147615 745.19479,619.35019 Z"
         transform="matrix(0.04205835,0,0,0.07496114,272.86064,407.75077)"
         inkscape:transform-center-x="-3.7800412e-05"
         inkscape:transform-center-y="-2.1329578e-06" />
      <path
         sodipodi:type="star"
         style="fill:#ff0000;stroke-width:0.339641"
         id="path284-7-5-9-7"
         inkscape:flatsided="false"
         sodipodi:sides="6"
         sodipodi:cx="683.5932"
         sodipodi:cy="463.29367"
         sodipodi:r1="167.77483"
         sodipodi:r2="118.6533"
         sodipodi:arg1="1.1948335"
         sodipodi:arg2="0.11868982"
         inkscape:rounded="2.6613372"
         inkscape:randomized="0"
         d="M 745.19479,619.35019 C 905.94087,992.67807 1203.383,537.6106 801.41173,477.34357 140.1571,378.20252 978.88594,58.597876 579.24509,594.67047 336.3067,920.5446 879.12775,950.60329 730.3349,572.35246 485.56625,-49.881378 1181.7164,516.67679 517.6435,438.61396 113.95903,391.16021 359.33796,876.28637 612.51637,558.30256 1029.0024,35.209777 886.42367,921.37258 621.99161,307.23716 461.24553,-66.090724 163.80341,388.97674 565.77467,449.24377 1227.0293,548.38483 388.30046,867.98947 787.94131,331.91687 1030.8797,6.0427399 488.05866,-24.015952 636.8515,354.23488 881.62015,976.46872 185.46999,409.91056 849.5429,487.97338 1253.2274,535.42713 1007.8484,50.300975 754.67003,368.28478 338.18405,891.37756 480.76273,5.2147615 745.19479,619.35019 Z"
         transform="matrix(0.03021792,0,0,0.05385777,355.86725,274.5383)"
         inkscape:transform-center-x="-3.9865929e-05"
         inkscape:transform-center-y="-2.5049438e-05" />
      <path
         sodipodi:type="star"
         style="fill:#ff0000;stroke-width:0.339641"
         id="path284-7-5-9-7-0"
         inkscape:flatsided="false"
         sodipodi:sides="6"
         sodipodi:cx="683.5932"
         sodipodi:cy="463.29367"
         sodipodi:r1="167.77483"
         sodipodi:r2="118.6533"
         sodipodi:arg1="1.1948335"
         sodipodi:arg2="0.11868982"
         inkscape:rounded="2.6613372"
         inkscape:randomized="0"
         d="M 745.19479,619.35019 C 905.94087,992.67807 1203.383,537.6106 801.41173,477.34357 140.1571,378.20252 978.88594,58.597876 579.24509,594.67047 336.3067,920.5446 879.12775,950.60329 730.3349,572.35246 485.56625,-49.881378 1181.7164,516.67679 517.6435,438.61396 113.95903,391.16021 359.33796,876.28637 612.51637,558.30256 1029.0024,35.209777 886.42367,921.37258 621.99161,307.23716 461.24553,-66.090724 163.80341,388.97674 565.77467,449.24377 1227.0293,548.38483 388.30046,867.98947 787.94131,331.91687 1030.8797,6.0427399 488.05866,-24.015952 636.8515,354.23488 881.62015,976.46872 185.46999,409.91056 849.5429,487.97338 1253.2274,535.42713 1007.8484,50.300975 754.67003,368.28478 338.18405,891.37756 480.76273,5.2147615 745.19479,619.35019 Z"
         transform="matrix(0.03021792,0,0,0.05385777,250.82352,338.56963)"
         inkscape:transform-center-x="-3.9865929e-05"
         inkscape:transform-center-y="-2.5049438e-05" />
      <path
         sodipodi:type="star"
         style="fill:#ff0000;stroke-width:0.339641"
         id="path284-7-5-9-7-9"
         inkscape:flatsided="false"
         sodipodi:sides="6"
         sodipodi:cx="683.5932"
         sodipodi:cy="463.29367"
         sodipodi:r1="167.77483"
         sodipodi:r2="118.6533"
         sodipodi:arg1="1.1948335"
         sodipodi:arg2="0.11868982"
         inkscape:rounded="2.6613372"
         inkscape:randomized="0"
         d="M 745.19479,619.35019 C 905.94087,992.67807 1203.383,537.6106 801.41173,477.34357 140.1571,378.20252 978.88594,58.597876 579.24509,594.67047 336.3067,920.5446 879.12775,950.60329 730.3349,572.35246 485.56625,-49.881378 1181.7164,516.67679 517.6435,438.61396 113.95903,391.16021 359.33796,876.28637 612.51637,558.30256 1029.0024,35.209777 886.42367,921.37258 621.99161,307.23716 461.24553,-66.090724 163.80341,388.97674 565.77467,449.24377 1227.0293,548.38483 388.30046,867.98947 787.94131,331.91687 1030.8797,6.0427399 488.05866,-24.015952 636.8515,354.23488 881.62015,976.46872 185.46999,409.91056 849.5429,487.97338 1253.2274,535.42713 1007.8484,50.300975 754.67003,368.28478 338.18405,891.37756 480.76273,5.2147615 745.19479,619.35019 Z"
         transform="matrix(0.01814115,0,0,0.03233319,455.04719,59.096369)"
         inkscape:transform-center-x="-4.211942e-05"
         inkscape:transform-center-y="-2.1061763e-05" />
      <path
         sodipodi:type="star"
         style="fill:#ff0000;stroke-width:0.339641"
         id="path284-7-5-9-7-9-2"
         inkscape:flatsided="false"
         sodipodi:sides="6"
         sodipodi:cx="683.5932"
         sodipodi:cy="463.29367"
         sodipodi:r1="167.77483"
         sodipodi:r2="118.6533"
         sodipodi:arg1="1.1948335"
         sodipodi:arg2="0.11868982"
         inkscape:rounded="2.6613372"
         inkscape:randomized="0"
         d="M 745.19479,619.35019 C 905.94087,992.67807 1203.383,537.6106 801.41173,477.34357 140.1571,378.20252 978.88594,58.597876 579.24509,594.67047 336.3067,920.5446 879.12775,950.60329 730.3349,572.35246 485.56625,-49.881378 1181.7164,516.67679 517.6435,438.61396 113.95903,391.16021 359.33796,876.28637 612.51637,558.30256 1029.0024,35.209777 886.42367,921.37258 621.99161,307.23716 461.24553,-66.090724 163.80341,388.97674 565.77467,449.24377 1227.0293,548.38483 388.30046,867.98947 787.94131,331.91687 1030.8797,6.0427399 488.05866,-24.015952 636.8515,354.23488 881.62015,976.46872 185.46999,409.91056 849.5429,487.97338 1253.2274,535.42713 1007.8484,50.300975 754.67003,368.28478 338.18405,891.37756 480.76273,5.2147615 745.19479,619.35019 Z"
         transform="matrix(0.01814115,0,0,0.03233319,459.73602,251.51697)"
         inkscape:transform-center-x="-4.211942e-05"
         inkscape:transform-center-y="-2.1061763e-05" />
      <path
         sodipodi:type="star"
         style="fill:#ff0000;stroke-width:0.339641"
         id="path284-7-5-9-7-2"
         inkscape:flatsided="false"
         sodipodi:sides="6"
         sodipodi:cx="683.5932"
         sodipodi:cy="463.29367"
         sodipodi:r1="167.77483"
         sodipodi:r2="118.6533"
         sodipodi:arg1="1.1948335"
         sodipodi:arg2="0.11868982"
         inkscape:rounded="2.6613372"
         inkscape:randomized="0"
         d="M 745.19479,619.35019 C 905.94087,992.67807 1203.383,537.6106 801.41173,477.34357 140.1571,378.20252 978.88594,58.597876 579.24509,594.67047 336.3067,920.5446 879.12775,950.60329 730.3349,572.35246 485.56625,-49.881378 1181.7164,516.67679 517.6435,438.61396 113.95903,391.16021 359.33796,876.28637 612.51637,558.30256 1029.0024,35.209777 886.42367,921.37258 621.99161,307.23716 461.24553,-66.090724 163.80341,388.97674 565.77467,449.24377 1227.0293,548.38483 388.30046,867.98947 787.94131,331.91687 1030.8797,6.0427399 488.05866,-24.015952 636.8515,354.23488 881.62015,976.46872 185.46999,409.91056 849.5429,487.97338 1253.2274,535.42713 1007.8484,50.300975 754.67003,368.28478 338.18405,891.37756 480.76273,5.2147615 745.19479,619.35019 Z"
         transform="matrix(0.01814115,0,0,0.03233319,221.95605,395.66265)"
         inkscape:transform-center-x="-4.211942e-05"
         inkscape:transform-center-y="-2.1061763e-05" />
      <path
         sodipodi:type="star"
         style="fill:#ff0000;stroke-width:0.339641"
         id="path284-7-5-9-7-2-2"
         inkscape:flatsided="false"
         sodipodi:sides="6"
         sodipodi:cx="-9465.8782"
         sodipodi:cy="1046.7226"
         sodipodi:r1="167.77483"
         sodipodi:r2="118.6533"
         sodipodi:arg1="1.1948335"
         sodipodi:arg2="0.11868982"
         inkscape:rounded="2.6613372"
         inkscape:randomized="0"
         d="m -9404.2763,1202.7792 c 160.746,373.3279 458.1882,-81.7396 56.2169,-142.0066 -661.2546,-99.1411 177.4742,-418.74574 -222.1666,117.3269 -242.9384,325.8741 299.8826,355.9328 151.0898,-22.3181 -244.7687,-622.23379 451.3815,-55.6756 -212.6914,-133.7385 -403.6844,-47.45371 -158.3056,437.6725 94.8728,119.6886 416.486,-523.09274 273.9073,363.0701 9.4753,-251.06536 -160.7461,-373.32788 -458.1882,81.73959 -56.217,142.00666 661.2547,99.141 -177.4742,418.7457 222.1667,-117.32695 242.9384,-325.87412 -299.8827,-355.93282 -151.0898,22.31802 244.7686,622.23383 -451.3815,55.67567 212.6914,133.73853 403.6844,47.4537 158.3055,-437.67244 -94.8729,-119.68863 -416.486,523.09283 -273.9073,-363.07002 -9.4752,251.06543 z"
         transform="matrix(0.01814115,0,0,0.03233319,215.94965,395.74322)"
         inkscape:transform-center-x="-4.211942e-05"
         inkscape:transform-center-y="-2.1061763e-05" />
      <path
         sodipodi:type="star"
         style="fill:#ff0000;stroke-width:0.339641"
         id="path284-3-0"
         inkscape:flatsided="false"
         sodipodi:sides="6"
         sodipodi:cx="683.5932"
         sodipodi:cy="463.29367"
         sodipodi:r1="167.77483"
         sodipodi:r2="118.6533"
         sodipodi:arg1="1.1948335"
         sodipodi:arg2="0.11868982"
         inkscape:rounded="2.6613372"
         inkscape:randomized="0"
         d="M 745.19479,619.35019 C 905.94087,992.67807 1203.383,537.6106 801.41173,477.34357 140.1571,378.20252 978.88594,58.597876 579.24509,594.67047 336.3067,920.5446 879.12775,950.60329 730.3349,572.35246 485.56625,-49.881378 1181.7164,516.67679 517.6435,438.61396 113.95903,391.16021 359.33796,876.28637 612.51637,558.30256 1029.0024,35.209777 886.42367,921.37258 621.99161,307.23716 461.24553,-66.090724 163.80341,388.97674 565.77467,449.24377 1227.0293,548.38483 388.30046,867.98947 787.94131,331.91687 1030.8797,6.0427399 488.05866,-24.015952 636.8515,354.23488 881.62015,976.46872 185.46999,409.91056 849.5429,487.97338 1253.2274,535.42713 1007.8484,50.300975 754.67003,368.28478 338.18405,891.37756 480.76273,5.2147615 745.19479,619.35019 Z"
         transform="matrix(0.08447158,0,0,0.15055479,352.54537,21.558114)"
         inkscape:transform-center-x="-482.48471"
         inkscape:transform-center-y="193.01257" />
      <path
         sodipodi:type="star"
         style="fill:#ff0000;stroke-width:0.339641"
         id="path284-3-6"
         inkscape:flatsided="false"
         sodipodi:sides="6"
         sodipodi:cx="683.5932"
         sodipodi:cy="463.29367"
         sodipodi:r1="167.77483"
         sodipodi:r2="118.6533"
         sodipodi:arg1="1.1948335"
         sodipodi:arg2="0.11868982"
         inkscape:rounded="2.6613372"
         inkscape:randomized="0"
         d="M 745.19479,619.35019 C 905.94087,992.67807 1203.383,537.6106 801.41173,477.34357 140.1571,378.20252 978.88594,58.597876 579.24509,594.67047 336.3067,920.5446 879.12775,950.60329 730.3349,572.35246 485.56625,-49.881378 1181.7164,516.67679 517.6435,438.61396 113.95903,391.16021 359.33796,876.28637 612.51637,558.30256 1029.0024,35.209777 886.42367,921.37258 621.99161,307.23716 461.24553,-66.090724 163.80341,388.97674 565.77467,449.24377 1227.0293,548.38483 388.30046,867.98947 787.94131,331.91687 1030.8797,6.0427399 488.05866,-24.015952 636.8515,354.23488 881.62015,976.46872 185.46999,409.91056 849.5429,487.97338 1253.2274,535.42713 1007.8484,50.300975 754.67003,368.28478 338.18405,891.37756 480.76273,5.2147615 745.19479,619.35019 Z"
         transform="matrix(0.11584168,0,0,0.20646613,76.692882,107.94901)"
         inkscape:transform-center-x="-661.66441"
         inkscape:transform-center-y="264.6914" />
    </g>
  </g>
</svg>
