<?xml version="1.0" encoding="UTF-8" standalone="no"?>
<!-- Created with Inkscape (http://www.inkscape.org/) -->

<svg
   width="512"
   height="512"
   viewBox="0 0 512 512"
   version="1.1"
   id="svg5"
   sodipodi:docname="logo-n.svg"
   inkscape:version="1.2.2 (b0a8486541, 2022-12-01)"
   inkscape:export-filename="logo.png"
   inkscape:export-xdpi="96"
   inkscape:export-ydpi="96"
   xmlns:inkscape="http://www.inkscape.org/namespaces/inkscape"
   xmlns:sodipodi="http://sodipodi.sourceforge.net/DTD/sodipodi-0.dtd"
   xmlns:xlink="http://www.w3.org/1999/xlink"
   xmlns="http://www.w3.org/2000/svg"
   xmlns:svg="http://www.w3.org/2000/svg">
  <sodipodi:namedview
     id="namedview7"
     pagecolor="#505050"
     bordercolor="#eeeeee"
     borderopacity="1"
     inkscape:showpageshadow="0"
     inkscape:pageopacity="0"
     inkscape:pagecheckerboard="0"
     inkscape:deskcolor="#505050"
     inkscape:document-units="px"
     showgrid="false"
     inkscape:zoom="0.32967649"
     inkscape:cx="148.63056"
     inkscape:cy="500.49064"
     inkscape:window-width="1366"
     inkscape:window-height="699"
     inkscape:window-x="0"
     inkscape:window-y="0"
     inkscape:window-maximized="1"
     inkscape:current-layer="layer1">
    <inkscape:grid
       type="xygrid"
       id="grid814" />
  </sodipodi:namedview>
  <defs
     id="defs2">
    <linearGradient
       inkscape:collect="always"
       id="linearGradient40559">
      <stop
         style="stop-color:#ffffff;stop-opacity:1;"
         offset="0"
         id="stop40555" />
      <stop
         style="stop-color:#f58787;stop-opacity:1;"
         offset="1"
         id="stop40557" />
    </linearGradient>
    <linearGradient
       id="linearGradient40369"
       inkscape:swatch="solid">
      <stop
         style="stop-color:#2cffee;stop-opacity:1;"
         offset="0"
         id="stop40367" />
    </linearGradient>
    <inkscape:perspective
       sodipodi:type="inkscape:persp3d"
       inkscape:vp_x="0 : 256 : 1"
       inkscape:vp_y="0 : 1000 : 0"
       inkscape:vp_z="512 : 256 : 1"
       inkscape:persp3d-origin="256 : 170.66667 : 1"
       id="perspective640" />
    <radialGradient
       inkscape:collect="always"
       xlink:href="#linearGradient40559"
       id="radialGradient40563"
       cx="438.87479"
       cy="428.56183"
       fx="438.87479"
       fy="428.56183"
       r="160.75842"
       gradientTransform="matrix(0.77218105,0,0,0.61812271,-72.170923,-8.9038014)"
       gradientUnits="userSpaceOnUse" />
  </defs>
  <g
     inkscape:label="Layer 1"
     inkscape:groupmode="layer"
     id="layer1">
    <path
       sodipodi:type="star"
       style="display:inline;fill:#d40000"
       id="path812"
       inkscape:flatsided="false"
       sodipodi:sides="2"
       sodipodi:cx="438.87479"
       sodipodi:cy="428.56183"
       sodipodi:r1="167.0706"
       sodipodi:r2="189.51009"
       sodipodi:arg1="0.52359878"
       sodipodi:arg2="2.0943951"
       inkscape:rounded="-0.94237282"
       inkscape:randomized="0"
       d="M 583.56217,512.09713 C 702.60242,305.91338 137.93599,473.64213 344.11974,592.68238 550.3035,711.72262 413.22765,138.84277 294.1874,345.02653 175.14716,551.21028 739.81358,383.48152 533.62983,264.44128 327.44608,145.40103 464.52193,718.28088 583.56217,512.09713 Z"
       inkscape:transform-center-y="-28.912009"
       transform="translate(-182.87479,-172.56183)" />
    <rect
       style="display:inline;fill:#280b0b;stroke-width:1.05661"
       id="rect816"
       width="505.39008"
       height="505.39008"
       x="3.3049674"
       y="3.3049674"
       ry="0" />
    <path
       style="display:none;fill:#ff0000;fill-opacity:1;stroke-width:1.74896"
       d="m 189.91757,431.91093 c -5.4418,-1.74039 -15.9282,-6.41908 -23.3032,-10.39709 -44.6769,-24.09844 -60.01759,-53.82129 -43.00645,-83.32585 14.85534,-25.76546 46.86425,-48.83112 94.77665,-68.29606 12.8712,-5.22907 22.6152,-9.49932 21.6533,-9.48944 -0.962,0.0105 -10.4063,1.60079 -20.9876,3.53533 -78.04245,14.26834 -126.2981,-3.78795 -122.90005,-45.98674 2.19237,-27.22601 27.98219,-70.14956 49.84683,-82.96309 29.28952,-17.16481 59.26872,2.01929 85.24022,54.54646 5.2317,10.58121 12.0171,26.54271 15.0785,35.47 3.0614,8.92729 5.8162,15.98148 6.1217,15.67599 0.3054,-0.3055 -0.6286,-6.82261 -2.0758,-14.48248 -1.4471,-7.65986 -3.0775,-27.70008 -3.6231,-44.53383 -1.1384,-35.12715 1.4283,-54.14641 9.798,-72.60542 16.9817,-37.452302 49.4399,-42.17316 97.077,-14.119287 15.0757,8.878197 32.3471,25.562017 37.3918,36.119797 5.5654,11.64772 5.2633,27.77422 -0.7465,39.83422 -13.1879,26.46462 -51.5015,54.0531 -102.8432,74.05422 -18.5397,7.22248 -17.6755,7.41432 10.6282,2.35923 34.0332,-6.07837 66.3694,-5.06097 87.2316,2.74457 33.9867,12.71606 39.8298,40.79666 17.3496,83.37843 -37.1529,70.37467 -83.1838,66.18696 -121.9864,-11.09786 -4.3807,-8.72523 -10.5104,-23.28533 -13.6216,-32.35577 -3.1111,-9.07044 -6.1763,-17.09336 -6.8114,-17.82873 -0.6351,-0.73537 -0.1631,4.38034 1.0489,11.36825 13.1658,75.90915 0.8758,133.69364 -31.5692,148.42929 -9.2137,4.18465 -26.6234,4.16972 -39.7678,-0.0341 z"
       id="path1510" />
    <path
       id="path812-3"
       style="display:inline;fill:url(#radialGradient40563);stroke-width:0.772181"
       inkscape:transform-center-x="1.8087809e-06"
       inkscape:transform-center-y="-22.325307"
       d="M 337.06521,335.38716 C 476.08891,220.59989 31.496305,219.74321 167.88801,337.64576 283.21371,437.33797 292.48596,79.55473 174.9348,176.61284 35.911088,291.40011 480.50369,292.25679 344.11199,174.35425 228.7863,74.662021 219.51404,432.44527 337.06521,335.38716 Z"
       sodipodi:nodetypes="sssss" />
  </g>
</svg>
